# xmcd CD database file
#
# Track frame offsets:
#	150
#	20322
#	36030
#	48469
#	66741
#	79027
#	97344
#	113074
#	126155
#	141506
#	158873
#	180470
#	194420
#	212962
#	253603
#	269400
#	291699
#	311575
#
# Disc length: 4510 seconds
#
# Revision: 0
# Processed by: cddbd v1.5.2PL0 Copyright (c) Steve Scherf et al.
# Submitted via: CDex 1.51
#
DISCID=1e119c12
DTITLE=Various Artist - Jazz 1 - CD1
DYEAR=2008
DGENRE=Jazz
TTITLE0=Carl Riseley-This Guys in love with you
TTITLE1=MadeleinePeyroux-I'm all right
TTITLE2=Laura Fygi-C'est le bon
TTITLE3=Curtis Stigers-I'll be your baby tonight
TTITLE4=Deborah Cox-Destination Moon
TTITLE5=Jamie Cullum-Get your way
TTITLE6=Room Eleven-Hey Hey Hey
TTITLE7=Queen Latifah-I love being here with you
TTITLE8=Melody Gardot-Sweet Memory
TTITLE9=Beth Rowley-Nobody's fault but mine
TTITLE10=Lizz Wright-Coming Home
TTITLE11=Silje Nergaard-Me Oh my
TTITLE12=Erin Boheme-Someone to love
TTITLE13=Taylor Eigsti-Caravan
TTITLE14=Curtis Stigers-Night Owl
TTITLE15=Nnenna Freelon-Better than anything
TTITLE16=Karren Allyson-All you need to say
TTITLE17=Till Bronner-River man
EXTD=YEAR: 2008
EXTT0=
EXTT1=
EXTT2=
EXTT3=
EXTT4=
EXTT5=
EXTT6=
EXTT7=
EXTT8=
EXTT9=
EXTT10=
EXTT11=
EXTT12=
EXTT13=
EXTT14=
EXTT15=
EXTT16=
EXTT17=
PLAYORDER=
